<?xml version="1.0" encoding="UTF-8"?>
<svg id="_Слой_1" data-name="Слой_1" xmlns="http://www.w3.org/2000/svg" version="1.1" viewBox="0 0 595.28 595.28">
  <!-- Generator: Adobe Illustrator 29.0.0, SVG Export Plug-In . SVG Version: 2.1.0 Build 186)  -->
  <defs>
    <style>
      .st0 {
        fill: #0b352c;
      }

      .st1 {
        fill: #212a51;
      }

      .st2 {
        fill: #855a1b;
      }
    </style>
  </defs>
  <path class="st1" d="M277.52,170.99c-2.71.28-6.55.47-11.12,0,0,0-3.23-.24-5.93-.95-10.37-2.73-16.98-10.37-20.72-14.82-7.16-8.5-8.56-14.6-15.28-16.65-1.15-.35-3.02-.75-4.83-1.02-5.01-.75-9.21-.45-12-.07-.98.21-2.54.56-4.43,1.07-5.95,1.59-8.3,2.86-17.23,6.25-5.61,2.13-11.75,4.3-11.78,4.32-7.12,2.06-15.9,4.34-26.05,6.37-11.05,2.21-19.47,3.28-21.29,3.51-22.73,2.85-41.58,2.27-56.41,1.76-.85-.03-1.55-.06-1.99-.07.47,2.29,1.34,5.19,2.97,8.11.15.27,1.4,2.48,3.12,4.51.4.48,1.11,1.28,1.87,2.09,0,0,.72.77,1.43,1.48,1.21,1.22,3.85,3.53,7.46,6.31,22.87,1.7,47.84.98,74.2-3.84,2.78-.51,5.52-1.05,8.23-1.63,7.94-1.65,15.88-3.3,23.82-4.95-6.01,2.52-12.45,4.9-19.32,7.02-30.93,9.56-59.35,10.52-81.49,8.83h0c4.47,4.07,10.09,8.57,16.95,12.88,8.73,5.48,16.96,9.06,23.72,11.44,28.86-3.99,53.96-11.75,75.73-21.51.81-.36,1.61-.73,2.41-1.1-17.49,9.98-37.75,18.56-60.8,23.71-2.14.48-4.26.92-6.37,1.32,38.39,10.81,93.4,18.7,132.37-10.54,1.49-1.11,2.95-2.28,4.39-3.51-.54-10.1-1.07-20.2-1.61-30.29Z"/>
  <path class="st1" d="M318.38,170.99c2.71.28,6.55.47,11.12,0,0,0,3.23-.24,5.93-.95,10.37-2.73,16.98-10.37,20.72-14.82,7.16-8.5,8.56-14.6,15.28-16.65,1.15-.35,3.02-.75,4.83-1.02,5.01-.75,9.21-.45,12-.07.98.21,2.54.56,4.43,1.07,5.95,1.59,8.3,2.86,17.23,6.25,5.61,2.13,11.75,4.3,11.78,4.32,7.12,2.06,15.9,4.34,26.05,6.37,11.05,2.21,19.47,3.28,21.29,3.51,22.73,2.85,41.58,2.27,56.41,1.76.85-.03,1.55-.06,1.99-.07-.47,2.29-1.34,5.19-2.97,8.11-.15.27-1.4,2.48-3.12,4.51-.4.48-1.11,1.28-1.87,2.09,0,0-.72.77-1.43,1.48-1.21,1.22-3.85,3.53-7.46,6.31-22.87,1.7-47.84.98-74.2-3.84-2.78-.51-5.52-1.05-8.23-1.63-7.94-1.65-15.88-3.3-23.82-4.95,6.01,2.52,12.45,4.9,19.32,7.02,30.93,9.56,59.35,10.52,81.49,8.83-4.47,4.07-10.09,8.57-16.95,12.88-8.73,5.48-16.96,9.06-23.72,11.44-28.86-3.99-53.96-11.75-75.73-21.51-.81-.36-1.61-.73-2.41-1.1,17.49,9.98,37.75,18.56,60.8,23.71,2.14.48,4.26.92,6.37,1.32-38.39,10.81-93.4,18.7-132.37-10.54-1.49-1.11-2.95-2.28-4.39-3.51.54-10.1,1.07-20.2,1.61-30.29Z"/>
  <path class="st2" d="M313.44,137.56c-5.9-6.01-13.45-6.09-14.84-6.08-1.47-.1-8.77-.42-14.85,4.98-7.6,6.74-6.64,16.51-6.51,17.63,1.19,10.35,9.72,15.37,10.61,15.88.98,32.65,1.95,65.29,2.93,97.94-3.77-1.4-37.34-14.03-38.63-21.18-.27-1.48,0-2.85,0-2.85.9-4.61,6-7.08,7.9-7.9,3.04-.07,6.07-.15,9.11-.22,1.49.15,3.42.16,5.6-.33,5.53-1.23,8.92-4.83,10.21-6.37.35-.6.7-1.21,1.04-1.81-1.81-2.95-3.87-4.43-5.32-5.21-6.8-3.66-16.91-.95-25.13,6.91-1.29.31-3.27.91-5.38,2.2-6.94,4.22-8.8,11.77-9.22,13.83-.27,1.34-.84,4.72,0,8.89.32,1.6,1.48,6.99,6.04,11.3,1.05.99,1.97,1.64,2.63,2.09,6.52,4.37,17.67,8.95,22.5,10.87.83-.44,1.68-.88,2.52-1.32,10.66-5.47,21.29-9.74,31.72-13.06.88-31.3,1.76-62.61,2.63-93.91,1.01-.6,8.61-5.31,10-14.92.17-1.16,1.34-10.32-5.55-17.34ZM276.6,224.11c1.23.14,1.99.88,2.2,1.1-.12.15-.89,1.08-2.19,1.12-1.06.04-2.06-.52-2.64-1.45.2-.16,1.21-.93,2.63-.77Z"/>
  <path class="st2" d="M356.4,246.17c-1.29-9.19-8.87-14.4-9.99-15.15-1.37-.91-3.52-2.13-6.47-2.98-.78-.86-1.7-1.75-2.79-2.6-4.45-3.51-9.27-4.58-12.25-4.95-.7-.05-1.43-.06-2.2,0-5.67.45-9.65,4.27-11.41,6.26.94,2.74,2.31,4.55,3.4,5.71,7.28,7.66,20.04,4.29,20.85,4.06,1.41-.27,2.49-.09,3.18.11,3.06.89,5.31,4.1,5.89,8.15-.09,1.19-.32,2.24-.63,3.16-2.71,8.25-12.78,11.19-14.82,11.74-3,.97-7.14,2.32-12.07,3.95-30.09,9.93-39.92,13.83-48.95,22.17-5.16,4.77-7.48,8.6-8.34,12.84-1.41,6.96,1.55,12.81,2.96,15.59,5.39,10.62,15.45,15.01,18.99,16.35,7.5-4.39,15-8.78,22.5-13.17.33-8.74.66-17.49.99-26.23.34.08.67.16,1.01.25,1.91.48,4.62,1.32,7.66,2.83,2.44,1.2,3.97,1.96,5.05,3.18,3.83,4.32.53,12.74,0,14.05-1.84,1.47-3.75,2.94-5.71,4.39-10.42,7.73-20.82,13.91-30.73,18.88-1.1.53-11.03,5.5-12.62,15.48-1.63,10.23,6.15,21.72,19.21,25.13-.63.22-8.3,3.1-10.1,10.54-1.66,6.9,2.44,14.79,10.21,18.11,4.39-2.96,8.78-5.93,13.17-8.89v-12.95c-2.67,1.28-5.34,2.56-8.01,3.84l.22,12.4c-4.71-1.56-7.77-5.72-7.57-9.88.27-5.65,6.48-9.23,11.63-9,3.67.16,7.74,2.29,9.55,6.37,2.19,4.94-.38,9.52-.66,9.99-4.42,2.33-8.84,4.66-13.26,6.98-1.37.79-5.33,3.33-7.04,8.27-1.87,5.39-.35,11.63,3.83,16.3-1.02-1.19-2.11-2.91-2.4-5.1-.68-5.06,3.13-10.67,9.66-13.28,4.57-2.67,9.15-5.34,13.72-8.01,1.34-.81,2.26-1.67,2.85-2.3,3.48-3.73,3.62-8.33,3.62-9.33,0-.24,0-1.63-.33-3.07-1.53-6.64-9.18-10.34-10.54-10.98,9.85-3.15,16.46-9.26,18.44-14.38,1.83-4.74,1.43-9.22,1.43-9.22,0,0-.16-1.78-.66-3.51-1.97-6.88-9.34-11.85-10.87-12.84-7.46,3.91-14.93,7.83-22.39,11.74v19.76c-1.53-.77-3.58-1.93-5.82-3.62-3.48-2.64-5.61-4.25-6.26-7.13-.65-2.9.57-5.42.77-5.82.68-1.36,1.57-2.21,2.41-2.96,4.38-3.88,7.79-5.49,7.79-5.49,5.79-2.73,16.33-7.89,22.28-11.2,6.8-3.77,10.99-6.14,15.15-10.98,2.41-2.8,5.92-6.87,6.91-12.4,2.26-12.53-10.05-23.08-11.2-24.04-11.41,3.73-22.83,7.46-34.24,11.2.26,9.07.51,18.15.77,27.22-3.77-2.7-6.67-4.75-8.34-5.93-4.27-3-5.65-3.93-6.8-5.93-1.36-2.34-1.94-5.34-1.54-7.68,1.34-7.84,14.27-12.06,26.78-16.13,6.55-2.14,9.36-2.46,17.89-5.6,4.96-1.82,9-3.55,11.63-4.72,5.62-2.5,10.44-4.97,14.38-7.13,1.74-1.03,5.95-3.86,8.45-9.33,1.61-3.52,1.87-6.74,1.87-8.67.09-1.02.15-2.56-.11-4.39ZM320.43,226.33c-1.34,0-2.19-.85-2.34-1.01.17-.17,1.05-1.01,2.43-1.02,1.33-.01,2.21.74,2.4.91-.13.15-1.03,1.13-2.49,1.12ZM303.66,361.25c.02-6.26.04-12.51.05-18.77,2.98,1.76,5.96,3.51,8.95,5.27.78.59,2.68,2.22,3.24,4.88.76,3.6-1.24,7.6-5.05,9.88-4.24,2.54-8.49,5.09-12.73,7.63-1.17-.88-2.34-1.76-3.51-2.63,3.02-2.09,6.04-4.17,9.05-6.26Z"/>
  <path class="st2" d="M302.98,411.5c1.51-1,3.02-2,4.54-3,.38.34,4.91,4.55,4.02,10.9-.82,5.86-5.58,8.68-6.15,9,.74-.82,3.01-3.55,3.07-7.54.04-2.57-.87-4.44-1.1-4.9-1.36-2.69-3.53-4-4.39-4.46Z"/>
  <path class="st2" d="M301.52,412.45c-.71,16.93-1.41,33.85-2.12,50.78-1.39-15.93-2.78-31.85-4.17-47.78l6.29-3Z"/>
  <path class="st0" d="M113.62,214.89c52.99,70.83,105.98,141.66,158.97,212.48,2.11,2.39,4.22,4.78,6.33,7.17,1.47,1.33,3.38,2.83,5.74,4.25,2.31,1.4,4.49,2.37,6.32,3.05h0c-.36-3.25-.73-6.5-1.09-9.75-1.27-1.26-3.18-3.44-4.72-6.59-1.31-2.69-3.56-7.28-2.09-12.51.37-1.3,1.38-4.11,4.39-6.8-2.28-1.17-7.23-4.14-9.99-9.99-.64-1.36-1.75-3.79-1.76-7.13,0-1.27.16-5.37,3.07-9.22,1.51-1.99,3.2-3.19,4.28-3.84-2.4-1.02-7.03-3.39-10.87-8.34-1.57-2.03-4.52-5.95-5.16-11.85-.74-6.86,2.12-11.97,3.07-13.61,3.13-5.4,7.56-8.07,9.55-9.11-9.52-4.21-14.85-9.69-17.45-12.84-2.72-3.3-3.79-5.67-4.28-6.91-2.41-6.08-1.51-11.56-1.12-13.78.47-2.67,1.53-6.36,3.98-10.15,3-4.65,6.7-7.29,8.78-8.56-6.48-2.89-12.95-5.78-19.43-8.67-2.68-1.99-9.65-7.76-11.96-17.56-1.3-5.52-.57-9.95-.33-11.2.54-2.88,2.58-10.97,9.44-15.37,3.81-2.44,7.59-2.78,7.57-2.85-.1-.4-23.89,5.49-23.89,5.49-17.84,4.41-50.81,4.55-117.37-15.8Z"/>
  <path class="st0" d="M310.45,444.39"/>
  <path class="st0" d="M312.31,442.42"/>
  <path class="st0" d="M483.71,214.82c-52.99,70.83-105.98,141.66-158.97,212.48-2.11,2.39-4.22,4.78-6.33,7.17-1.47,1.33-3.38,2.83-5.74,4.25-2.31,1.4-4.49,2.37-6.32,3.05h0c.36-3.25.73-6.5,1.09-9.75,1.27-1.26,3.18-3.44,4.72-6.59,1.31-2.69,3.56-7.28,2.09-12.51-.37-1.3-1.38-4.11-4.39-6.8,2.28-1.17,7.23-4.14,9.99-9.99.64-1.36,1.75-3.79,1.76-7.13,0-1.27-.16-5.37-3.07-9.22-1.51-1.99-3.2-3.19-4.28-3.84,2.4-1.02,7.03-3.39,10.87-8.34,1.57-2.03,4.52-5.95,5.16-11.85.74-6.86-2.12-11.97-3.07-13.61-3.13-5.4-7.56-8.07-9.55-9.11,9.52-4.21,14.85-9.69,17.45-12.84,2.72-3.3,3.79-5.67,4.28-6.91,2.41-6.08,1.51-11.56,1.12-13.78-.47-2.67-1.53-6.36-3.98-10.15-3-4.65-6.7-7.29-8.78-8.56,6.48-2.89,12.95-5.78,19.43-8.67,2.68-1.99,9.65-7.76,11.96-17.56,1.3-5.52.57-9.95.33-11.2-.54-2.88-2.58-10.97-9.44-15.37-3.81-2.44-7.59-2.78-7.57-2.85.1-.4,23.89,5.49,23.89,5.49,17.84,4.41,50.81,4.55,117.37-15.8Z"/>
</svg>